HIERARCHY
ROOT Hips
{
    OFFSET 0.0 0.0 0.0
    CHANNELS 6 Xposition Yposition Zposition Zrotation Xrotation Yrotation
    JOINT Spine
    {
        OFFSET 0.0 5.0 0.0
        CHANNELS 3 Zrotation Xrotation Yrotation
        JOINT Chest
        {
            OFFSET 0.0 5.0 0.0
            CHANNELS 3 Zrotation Xrotation Yrotation
            JOINT Neck
            {
                OFFSET 0.0 8.0 0.0
                CHANNELS 3 Zrotation Xrotation Yrotation
                JOINT Head
                {
                    OFFSET 0.0 5.0 0.0
                    CHANNELS 3 Zrotation Xrotation Yrotation
                    End Site
                    {
                        OFFSET 0.0 3.0 0.0
                    }
                }
            }
            JOINT LeftShoulder
            {
                OFFSET -5.0 0.0 0.0
                CHANNELS 3 Zrotation Xrotation Yrotation
                JOINT LeftArm
                {
                    OFFSET 0.0 -10.0 0.0
                    CHANNELS 3 Zrotation Xrotation Yrotation
                    JOINT LeftForeArm
                    {
                        OFFSET 0.0 -10.0 0.0
                        CHANNELS 3 Zrotation Xrotation Yrotation
                        End Site
                        {
                            OFFSET 0.0 -3.0 0.0
                        }
                    }
                }
            }
        }
    }
}

MOTION
Frames: 33
Frame Time: 0.033333
960.000000 445.000000 110.724839 0.000000 0.000000 0.000000 0.000000 0.000000 0.000000 23.025492 28.079433 0.000000 180.000000 -2.482211 0.000000 21.801409 1.582741 -0.000000 158.198591 -4.215282 30.000000 15.945396 4.840763 0.000000 18.000000 -0.040155 0.000000
1691.525230 140.756605 118.186860 0.000000 0.000000 0.000000 0.000000 0.000000 0.000000 -163.376529 1.833645 4.973798 16.623471 -7.543850 4.973798 -171.853121 -3.247979 3.759997 99.744051 -2.778405 29.763441 -171.126653 -3.918263 -3.759997 0.673538 0.318900 0.313953
1636.048050 128.802021 92.718215 0.000000 0.000000 0.000000 0.000000 0.000000 0.000000 157.904128 -3.691134 9.635073 -22.095872 37.933334 9.635073 -171.936471 -4.552922 7.460697 -143.675701 2.321496 29.057495 -173.500805 -4.212186 -7.460697 0.570999 0.452683 0.626666
1578.156967 80.474526 102.591816 0.000000 0.000000 0.000000 0.000000 0.000000 0.000000 -139.519796 1.387413 13.690942 40.480204 -5.455190 13.690942 -174.507724 -3.735158 11.043737 119.111399 9.733438 27.893295 -173.607258 -4.818151 -11.043737 0.461920 0.475298 0.936907
960.418757 444.998421 103.244423 0.000000 0.000000 0.000000 0.000000 0.000000 0.000000 25.077893 27.047560 16.886559 180.000000 2.968170 16.886559 23.861935 7.076395 14.452610 156.138065 6.084773 26.289200 17.903699 -3.039464 -14.452610 18.000000 -0.613055 1.243449
960.523360 444.997533 121.468715 0.000000 0.000000 0.000000 0.000000 0.000000 0.000000 25.638906 27.803631 19.021130 180.000000 -12.127062 19.021130 24.425035 0.434971 17.633558 155.574965 0.996171 24.270510 18.452907 5.069160 -17.633558 18.000000 -0.883728 1.545085
960.627905 444.996447 111.525788 0.000000 0.000000 0.000000 0.000000 0.000000 0.000000 26.219073 37.650455 19.960535 180.000000 -19.836298 19.960535 25.006291 6.566983 20.536413 154.993709 -11.576443 21.869059 19.024920 0.871784 -20.536413 18.000000 -1.001779 1.840623
1126.242828 420.359820 136.520895 0.000000 0.000000 0.000000 0.000000 0.000000 0.000000 31.410514 -5.802040 19.645745 -148.589486 7.045138 19.645745 32.280463 2.974094 23.115397 -131.603972 1.852363 19.122720 45.585331 -0.519779 -23.115397 -13.449727 -0.013716 2.128896
1257.895088 650.549197 142.892880 0.000000 0.000000 0.000000 0.000000 0.000000 0.000000 25.073180 4.907926 18.096541 -154.926820 -17.485165 18.096541 46.260945 8.178824 25.329838 -154.651428 -5.881009 16.074804 27.339487 5.164014 -25.329838 -13.619892 -0.398694 2.408768
960.941083 444.992008 144.352253 0.000000 0.000000 0.000000 0.000000 0.000000 0.000000 28.072001 30.177587 15.410265 180.000000 -8.333814 15.410265 26.849221 -7.388571 27.144812 153.150779 -0.322296 12.773379 20.864045 -7.715597 -27.144812 18.000000 0.124604 2.679134
1163.815842 547.748709 167.726351 0.000000 0.000000 0.000000 0.000000 0.000000 0.000000 117.162728 -7.026083 11.755705 -62.837272 -4.931344 11.755705 102.363764 3.092859 28.531695 -47.376450 -1.299740 9.270510 104.768601 -1.951846 -28.531695 -6.003489 0.275682 2.938926
961.149372 444.988063 140.125243 0.000000 0.000000 0.000000 0.000000 0.000000 0.000000 29.395983 10.604254 7.362491 180.000000 -7.921209 7.362491 28.146217 5.083406 29.468618 151.853783 -1.518043 5.621439 22.170006 -2.933691 -29.468618 18.000000 0.586800 3.187120
1136.717377 590.104480 132.188216 0.000000 0.000000 0.000000 0.000000 0.000000 0.000000 115.752126 -11.666863 2.506665 -64.247874 12.201472 2.506665 73.638146 -5.527927 29.940802 -21.842452 4.686427 1.883716 75.369282 0.086417 -29.940802 -6.767207 -0.611703 3.422736
1163.079758 634.077559 133.216316 0.000000 0.000000 0.000000 0.000000 0.000000 0.000000 132.174340 2.061607 -2.506665 -47.825660 5.694298 -2.506665 94.255711 2.578979 29.940802 -149.364979 -6.751546 -1.883716 30.021641 6.067758 -29.940802 -5.096180 -1.317350 3.644843
961.460830 444.980668 143.489381 0.000000 0.000000 0.000000 0.000000 0.000000 0.000000 31.497152 14.077265 -7.362491 180.000000 -19.293316 -7.362491 30.152455 3.622160 29.468618 149.847545 -0.180499 -5.621439 24.175589 -4.795869 -29.468618 18.000000 -0.096999 3.852566
1097.449951 565.089898 151.095283 0.000000 0.000000 0.000000 0.000000 0.000000 0.000000 -119.219568 -2.510671 -11.755705 60.780432 -2.500330 -11.755705 -150.180642 -6.454545 28.531695 48.804955 -0.684472 -9.270510 -149.874178 -6.041563 -28.531695 2.713854 0.549605 4.045085
1114.140244 528.302071 135.433369 0.000000 0.000000 0.000000 0.000000 0.000000 0.000000 -142.671523 -2.233340 -15.410265 37.328477 5.552388 -15.410265 -177.395681 1.062309 27.144812 34.687329 1.550650 -12.773379 161.894167 1.200240 -27.144812 -0.910956 0.311233 4.221640
1116.433640 479.728639 148.009579 0.000000 0.000000 0.000000 0.000000 0.000000 0.000000 -102.267481 5.568658 -18.096541 77.732519 -4.372974 -18.096541 -163.695626 3.376748 25.329838 38.575767 -1.157823 -16.074804 -176.001122 0.532513 -25.329838 0.706594 0.234126 4.381533
1135.931282 466.493965 168.760871 0.000000 0.000000 0.000000 0.000000 0.000000 0.000000 -112.868406 4.055227 -19.645745 67.131594 3.060363 -19.645745 -159.517862 -4.323665 23.115397 36.204678 2.135228 -19.122720 -154.426613 -6.295718 -23.115397 2.428729 0.522033 4.524135
1141.618767 467.420679 126.548921 0.000000 0.000000 0.000000 0.000000 0.000000 0.000000 -123.086385 -4.688405 -19.960535 56.913615 1.039147 -19.960535 -154.885724 2.371089 20.536413 36.481623 0.109469 -21.869059 -153.965441 -5.956234 -20.536413 2.446728 0.506703 4.648882
1150.647926 469.370956 154.157619 0.000000 0.000000 0.000000 0.000000 0.000000 0.000000 -43.953779 -13.474035 -19.021130 136.046221 13.462908 -19.021130 -154.327268 -6.479406 17.633558 60.745168 18.316951 -24.270510 -153.350642 -7.015784 -17.633558 2.386216 0.620629 4.755283
1151.529922 496.420240 128.021749 0.000000 0.000000 0.000000 0.000000 0.000000 0.000000 -116.362129 -5.108877 -16.886559 63.637871 14.198310 -16.886559 -149.081043 -5.514507 14.452610 35.941860 4.788438 -26.289200 -156.847177 0.720964 -14.452610 2.056513 -0.144397 4.842916
1148.402367 515.713574 125.077887 0.000000 0.000000 0.000000 0.000000 0.000000 0.000000 -118.252650 0.288721 -13.690942 61.747350 -1.234425 -13.690942 -138.082896 -0.225639 11.043737 -156.312677 -6.870877 -27.893295 21.649626 9.802729 -11.043737 2.962417 0.002593 4.911436
1175.363617 533.368646 122.754399 0.000000 0.000000 0.000000 0.000000 0.000000 0.000000 -95.476638 -5.726389 -9.635073 84.523362 -15.249275 -9.635073 -113.907461 3.547433 7.460697 -155.995907 -6.812598 -29.057495 12.512064 8.440666 -7.460697 -16.748794 -0.844067 4.960574
1199.533310 485.991104 135.809459 0.000000 0.000000 0.000000 0.000000 0.000000 0.000000 -100.003195 -1.913248 -4.973798 79.996805 -0.854176 -4.973798 -86.083188 1.216017 3.759997 38.843754 1.268211 -29.763441 -106.539452 -0.117388 -3.759997 6.197806 0.042551 4.990134
962.588190 444.938442 135.154760 0.000000 0.000000 0.000000 0.000000 0.000000 0.000000 39.579754 30.697315 -0.000000 180.000000 6.283642 -0.000000 36.680773 -14.938547 0.000000 143.319227 -5.375482 -30.000000 29.388385 7.020069 -0.000000 18.000000 -0.946116 5.000000
1142.094727 445.716287 135.324074 0.000000 0.000000 0.000000 0.000000 0.000000 0.000000 -140.228454 -18.727439 4.973798 39.771546 -12.618723 4.973798 -156.118008 -6.374344 -3.759997 3.479189 -7.049802 -29.763441 -158.005660 -5.745772 3.759997 2.150019 0.517239 4.990134
1164.005928 424.847746 101.923748 0.000000 0.000000 0.000000 0.000000 0.000000 0.000000 -84.241076 -44.784568 9.635073 95.758924 10.239190 9.635073 -156.181584 -5.204701 -7.460697 166.928360 1.193376 -29.057495 -154.947270 -5.389777 7.460697 2.644196 0.697131 4.960574
1124.208755 418.286655 121.998200 0.000000 0.000000 0.000000 0.000000 0.000000 0.000000 -117.427077 0.293594 13.690942 62.572923 22.765013 13.690942 -155.943063 -6.047358 -11.043737 14.023837 7.095726 -27.893295 -157.382674 -5.573367 11.043737 2.188130 0.453850 4.911436
962.990408 444.917226 125.376871 0.000000 0.000000 0.000000 0.000000 0.000000 0.000000 42.110883 43.027374 16.886559 180.000000 -14.977154 16.886559 37.946959 -4.981080 -14.452610 142.053041 -21.454475 -26.289200 29.293612 1.137758 14.452610 18.000000 -1.135278 4.842916
963.090170 444.911436 90.339808 0.000000 0.000000 0.000000 0.000000 0.000000 0.000000 42.659200 8.673460 19.021130 180.000000 -17.831921 19.021130 38.119107 7.394192 -17.633558 141.880893 -9.100592 -24.270510 29.068887 -1.877933 17.633558 18.000000 -0.077129 4.755283
1186.646461 396.272757 112.383762 0.000000 0.000000 0.000000 0.000000 0.000000 0.000000 -72.847419 -13.050755 19.960535 107.152581 33.067527 19.960535 -156.703603 -5.572457 -20.536413 178.447294 1.935256 -21.869059 -157.212393 -4.639619 20.536413 1.964058 0.413523 4.648882
1313.051605 426.636125 88.973500 0.000000 0.000000 0.000000 0.000000 0.000000 0.000000 90.994869 -18.719024 19.645745 -89.005131 13.917198 19.645745 -160.515303 -4.477049 -23.115397 -153.248861 9.426176 -19.122720 -159.640525 -5.820774 23.115397 0.000000 0.000000 0.000000
